#!OML:ASF I:\Actors\actors\Patient Classification 2\Patient 1\Session 1\actor1.ASF
:FULLY-SPECIFIED
:DEGREES
452
root -0.792679 18.841 6.1635 8.85504 -0.5751 -0.796133
lowerback 23.4804 -0.811417 1.55932
upperback -2.03508 -0.573057 0.355385
thorax -15.6593 -0.367806 -0.275694
lowerneck -19.0334 -0.394795 -0.791211
upperneck 14.0893 -0.627857 1.67422
head 7.46111 -0.178398 0.606989
rclavicle 2.59662e-015 2.90723e-015
rhumerus -40.4848 -22.0285 -21.4323
rradius 61.3862
rwrist -5.59168
rhand 11.2217 -44.2362
rfingers 7.12502
rthumb 36.2841 -70.4824
lclavicle 2.59662e-015 2.90723e-015
lhumerus -31.0599 27.4841 21.384
lradius 67.5296
lwrist 9.91566
lhand 25.2064 -5.88502
lfingers 7.12502
lthumb 49.3506 15.6721
rfemur 0.592545 0.184298 14.6721
rtibia 9.54166e-015
rfoot -17.3314 -11.347
rtoes -2.87506
lfemur -12.6504 -1.45115 -12.3208
ltibia 21.7474
lfoot -17.874 7.42374
ltoes -56.3843
453
root -0.77668 18.838 6.17887 8.44779 -0.362715 -0.824518
lowerback 23.4058 -0.738481 1.47427
upperback -2.00926 -0.501694 0.360245
thorax -15.5817 -0.328106 -0.248163
lowerneck -18.504 -0.435616 -0.846491
upperneck 14.6412 -0.672997 1.64382
head 7.55433 -0.206637 0.601812
rclavicle -9.56651e-015 1.98785e-016
rhumerus -38.8593 -19.7997 -17.0958
rradius 60.5437
rwrist -6.81811
rhand 12.8472 -43.7887
rfingers 7.12502
rthumb 37.8216 -69.6363
lclavicle -9.56651e-015 1.98785e-016
lhumerus -28.9469 25.8469 17.6602
lradius 66.7887
lwrist 11.4536
lhand 29.631 -3.27167
lfingers 7.12502
lthumb 53.3749 15.9804
rfemur 1.13233 0.014162 14.6659
rtibia -3.18055e-015
rfoot -17.3604 -11.3007
rtoes -2.63183
lfemur -12.3302 -1.4203 -12.3485
ltibia 21.9712
lfoot -17.8595 7.18576
ltoes -56.4263
454
root -0.760331 18.8339 6.19063 8.06868 -0.119731 -0.942492
lowerback 23.3877 -0.713986 1.48537
upperback -1.97044 -0.454313 0.440371
thorax -15.5227 -0.302693 -0.179589
lowerneck -18.1614 -0.433555 -0.906921
upperneck 15.2745 -0.648466 1.55978
head 7.70492 -0.206533 0.588218
rclavicle -9.33046e-015 3.18055e-015
rhumerus -37.3323 -17.8815 -12.7072
rradius 59.8776
rwrist -7.97459
rhand 14.6022 -43.6127
rfingers 7.12502
rthumb 39.4771 -68.9944
lclavicle -9.33046e-015 3.18055e-015
lhumerus -27.3253 24.6355 13.9305
lradius 66.0713
lwrist 12.976
lhand 33.346 -0.860594
lfingers 7.12502
lthumb 56.6874 15.9829
rfemur 1.63907 -0.17552 14.7643
rtibia -1.59028e-015
rfoot -17.455 -11.1928
rtoes -1.95382
lfemur -12.059 -1.44551 -12.2695
ltibia 22.1944
lfoot -17.8353 7.02231
ltoes -56.5465
455
root -0.741607 18.8308 6.19939 7.70777 0.172931 -1.09881
lowerback 23.4041 -0.736865 1.61148
upperback -1.8917 -0.433125 0.543552
thorax -15.4374 -0.297086 -0.141054
lowerneck -17.7616 -0.415072 -0.717672
upperneck 15.6814 -0.605799 1.17387
head 7.76854 -0.214069 0.435309
rclavicle 4.70871e-015 -3.57812e-015
rhumerus -35.7817 -16.2085 -8.38634
rradius 59.0791
rwrist -9.49737
rhand 15.992 -43.6792
rfingers 7.12502
rthumb 40.7846 -68.6637
lclavicle 4.70871e-015 -3.57812e-015
lhumerus -25.997 23.7741 10.2745
lradius 65.2475
lwrist 14.281
lhand 36.2779 0.672369
lfingers 7.12502
lthumb 59.2447 15.2218
rfemur 2.12386 -0.411917 14.9076
rtibia 9.54166e-015
rfoot -17.4549 -11.1647
rtoes -1.96272
lfemur -11.8049 -1.57151 -12.1432
ltibia 22.3864
lfoot -17.8095 6.88307
ltoes -56.6226
456
root -0.719867 18.8297 6.2052 7.36214 0.454128 -1.15717
lowerback 23.4641 -0.769477 1.74967
upperback -1.76906 -0.430287 0.586621
thorax -15.3257 -0.303869 -0.17246
lowerneck -17.4878 -0.414223 -0.567672
upperneck 16.0656 -0.59839 0.916626
head 7.84734 -0.227251 0.32696
rclavicle -5.61567e-015 4.07509e-015
rhumerus -34.5746 -14.8102 -4.24221
rradius 58.6306
rwrist -11.4204
rhand 17.0785 -44.0084
rfingers 7.12502
rthumb 41.8044 -68.6637
lclavicle -5.61567e-015 4.07509e-015
lhumerus -24.8366 23.1076 6.78265
lradius 64.3679
lwrist 15.5543
lhand 38.5836 1.66905
lfingers 7.12502
lthumb 61.211 14.112
rfemur 2.58427 -0.652954 14.9227
rtibia 7.95139e-015
rfoot -17.3932 -11.1734
rtoes -2.39378
lfemur -11.5451 -1.71896 -12.1371
ltibia 22.5285
lfoot -17.7612 6.76141
ltoes -56.7029
